<?xml version="1.0" encoding="utf-8"?>

<!DOCTYPE svg PUBLIC "-//W3C//DTD SVG 1.1//EN" "http://www.w3.org/Graphics/SVG/1.1/DTD/svg11.dtd">
<!-- Uploaded to: SVG Repo, www.svgrepo.com, Generator: SVG Repo Mixer Tools -->
<svg height="800px" width="800px" version="1.1" id="_x32_" xmlns="http://www.w3.org/2000/svg" xmlns:xlink="http://www.w3.org/1999/xlink" 
	 viewBox="0 0 512 512"  xml:space="preserve">
<style type="text/css">
	.st0{fill:#000000;}
</style>
<g>
	<path class="st0" d="M357.489,0h-43.892v35.657c0,31.812-25.791,57.603-57.602,57.603c-31.812,0-57.602-25.79-57.602-57.603V0
		h-43.89c0,0,7.405,93.055-46.627,128.923v201.271h296.245V128.923C350.091,93.055,357.489,0,357.489,0z M165.169,106.469
		c-10.366,19.722-24.824,38.05-42.283,49.388v-19.329c40.547-32.468,46.563-92.616,46.967-121.519h13.532v20.648
		c0,0.546,0.07,1.079,0.082,1.619l-0.111,0.011c0.144,1.619,0.214,3.336,0.214,5.142C183.593,59.443,177.085,83.868,165.169,106.469
		z M247.884,209.338c0,3.33-1.287,4.731-4.339,6.484l-35.81,21.018c-1.606,1.049-2.248,2.275-2.248,4.204v6.836
		c0,2.274,1.126,3.5,3.212,3.5h17.342v-7.176c0-2.281,1.126-3.506,3.213-3.506h15.416c2.087,0,3.213,1.225,3.213,3.506v26.792
		c0,2.281-1.126,3.506-3.213,3.506h-57.81c-2.087,0-3.213-1.225-3.213-3.506v-43.268c0-3.324,1.126-4.725,4.174-6.478l38.22-22.419
		v-19.916c0-4.55-2.407-7.001-6.422-7.001h-7.707c-4.339,0-6.426,2.451-6.426,7.001v7.656c0,1.753-0.962,2.802-2.568,2.802h-16.701
		c-1.767,0-2.57-1.05-2.57-2.802v-12.558c0-16.462,8.029-25.221,23.125-25.221h17.985c14.935,0,23.126,8.759,23.126,25.221V209.338z
		 M328.345,200.233c0,6.478-4.335,11.386-10.116,12.435v0.352c5.781,1.049,10.116,5.957,10.116,12.435v23.827
		c0,16.462-8.19,25.221-23.284,25.221h-18.629c-14.613,0-22.481-8.583-22.481-24.518v-5.78c0-2.281,1.126-3.506,3.213-3.506h15.416
		c2.087,0,3.21,1.225,3.21,3.506v7.176h17.987c2.087,0,3.21-1.226,3.21-3.5v-16.469c0-4.555-2.087-7.006-6.423-7.006h-18.948
		c-2.087,0-3.213-1.225-3.213-3.506v-16.111c0-2.281,1.126-3.506,3.213-3.506h18.948c4.177,0,6.423-2.45,6.423-6.83v-19.037
		c0-2.275-1.123-3.5-3.21-3.5h-17.987v7.176c0,2.281-1.123,3.506-3.21,3.506h-15.416c-2.087,0-3.213-1.225-3.213-3.506v-7.176
		c0-15.067,7.868-23.122,22.481-23.122h18.629c15.094,0,23.284,8.759,23.284,25.221V200.233z M389.114,155.857
		c-17.46-11.333-31.923-29.666-42.288-49.388c-11.919-22.601-18.427-47.026-18.404-64.04c0-1.806,0.071-3.523,0.217-5.142
		l-0.112-0.011c0.012-0.54,0.082-1.073,0.082-1.619V15.009h13.532c0.398,28.903,6.426,89.05,46.973,121.519V155.857z"/>
	<polygon class="st0" points="107.877,512 237.079,512 256.591,436.956 274.918,512 404.123,512 404.123,344.904 107.877,344.904 	
		"/>
</g>
</svg>